<svg height="512" viewBox="0 0 512 512" width="512" xmlns="http://www.w3.org/2000/svg" xmlns:xlink="http://www.w3.org/1999/xlink"><linearGradient id="a" gradientUnits="userSpaceOnUse" x1="-4.066" x2="472.949" y1="484.066" y2="7.051" data-name="New Gradient Swatch 1"><stop offset="0" stop-color="#003f8a"/><stop offset=".518" stop-color="#00d7df"/><stop offset="1" stop-color="#006df0"/></linearGradient><linearGradient id="b" x1="-26.066" x2="450.949" xlink:href="#a" y1="462.066" y2="-14.949"/><linearGradient id="c" x1="15.934" x2="492.949" xlink:href="#a" y1="504.066" y2="27.051"/><linearGradient id="d" x1="9.934" x2="486.949" xlink:href="#a" y1="498.066" y2="21.051"/><linearGradient id="f" x1="-112.066" x2="364.949" xlink:href="#a" y1="376.066" y2="-100.949"/><linearGradient id="g" x1="-106.066" x2="370.949" xlink:href="#a" y1="382.066" y2="-94.949"/><linearGradient id="h" x1="-70.066" x2="406.949" xlink:href="#a" y1="418.066" y2="-58.949"/><linearGradient id="i" x1="-34.066" x2="442.949" xlink:href="#a" y1="454.066" y2="-22.949"/><linearGradient id="j" x1="-94.066" x2="382.949" xlink:href="#a" y1="394.066" y2="-82.949"/><linearGradient id="k" x1="-58.066" x2="418.949" xlink:href="#a" y1="430.066" y2="-46.949"/><linearGradient id="l" x1="-22.066" x2="454.949" xlink:href="#a" y1="466.066" y2="-10.949"/><linearGradient id="m" x1="-152.066" x2="324.949" xlink:href="#a" y1="336.066" y2="-140.949"/><linearGradient id="n" x1="-128.066" x2="348.949" xlink:href="#a" y1="360.066" y2="-116.949"/><linearGradient id="o" x1="-124.066" x2="352.949" xlink:href="#a" y1="364.066" y2="-112.949"/><linearGradient id="p" x1="-100.066" x2="376.949" xlink:href="#a" y1="388.066" y2="-88.949"/><linearGradient id="q" x1="-96.066" x2="380.949" xlink:href="#a" y1="392.066" y2="-84.949"/><linearGradient id="r" x1="-72.066" x2="404.949" xlink:href="#a" y1="416.066" y2="-60.949"/><g><path d="m476 40h-440a28.031 28.031 0 0 0 -28 28v312a28.031 28.031 0 0 0 28 28h162.24l-4.8 24h-25.44a8 8 0 0 0 -8 8v16h-32a8 8 0 0 0 0 16h256a8 8 0 0 0 0-16h-32v-16a8 8 0 0 0 -8-8h-25.44l-4.8-24h162.24a28.031 28.031 0 0 0 28-28v-312a28.031 28.031 0 0 0 -28-28zm-452 240h56v8h-56zm0 24h56v8h-56zm312 144v8h-160v-8zm-126.24-16 4.8-24h82.88l4.8 24zm278.24-52a12.01 12.01 0 0 1 -12 12h-440a12.01 12.01 0 0 1 -12-12v-20h464zm0-36h-464v-16h56a8 8 0 0 0 16 0h392zm0-32h-392v-8h392zm0-24h-392v-8h392zm0-24h-392a8 8 0 0 0 -16 0h-56v-196a12.01 12.01 0 0 1 12-12h440a12.01 12.01 0 0 1 12 12z" fill="url(#a)"/><path d="m80 368h-40a8 8 0 0 0 0 16h40a8 8 0 0 0 0-16z" fill="url(#b)"/><path d="m360 88a72 72 0 1 0 72 72 72.081 72.081 0 0 0 -72-72zm0 128a56 56 0 1 1 56-56 56.063 56.063 0 0 1 -56 56z" fill="url(#c)"/><path d="m387.578 152.845-48-24a8 8 0 0 0 -11.578 7.155v48a8 8 0 0 0 11.578 7.155l48-24a8 8 0 0 0 0-14.31zm-43.578 18.211v-22.112l22.111 11.056z" fill="url(#d)"/><path d="m248 256h224a8 8 0 0 0 8-8v-176a8 8 0 0 0 -8-8h-224a8 8 0 0 0 -8 8v176a8 8 0 0 0 8 8zm8-176h208v160h-208z" fill="url(#c)"/><path d="m40 200h184a8 8 0 0 0 8-8v-120a8 8 0 0 0 -8-8h-184a8 8 0 0 0 -8 8v120a8 8 0 0 0 8 8zm8-120h168v104h-168z" fill="url(#f)"/><path d="m40 224h40a8 8 0 0 0 0-16h-40a8 8 0 0 0 0 16z" fill="url(#g)"/><path d="m152 208h-40a8 8 0 0 0 0 16h40a8 8 0 0 0 0-16z" fill="url(#h)"/><path d="m224 208h-40a8 8 0 0 0 0 16h40a8 8 0 0 0 0-16z" fill="url(#i)"/><path d="m40 248h40a8 8 0 0 0 0-16h-40a8 8 0 0 0 0 16z" fill="url(#j)"/><path d="m152 232h-40a8 8 0 0 0 0 16h40a8 8 0 0 0 0-16z" fill="url(#k)"/><path d="m224 232h-40a8 8 0 0 0 0 16h40a8 8 0 0 0 0-16z" fill="url(#l)"/><path d="m88 88h-24a8 8 0 0 0 -8 8v24a8 8 0 0 0 8 8h24a8 8 0 0 0 8-8v-24a8 8 0 0 0 -8-8zm-8 24h-8v-8h8z" fill="url(#m)"/><path d="m88 136h-24a8 8 0 0 0 -8 8v24a8 8 0 0 0 8 8h24a8 8 0 0 0 8-8v-24a8 8 0 0 0 -8-8zm-8 24h-8v-8h8z" fill="url(#n)"/><path d="m144 88h-24a8 8 0 0 0 -8 8v24a8 8 0 0 0 8 8h24a8 8 0 0 0 8-8v-24a8 8 0 0 0 -8-8zm-8 24h-8v-8h8z" fill="url(#o)"/><path d="m144 136h-24a8 8 0 0 0 -8 8v24a8 8 0 0 0 8 8h24a8 8 0 0 0 8-8v-24a8 8 0 0 0 -8-8zm-8 24h-8v-8h8z" fill="url(#p)"/><path d="m200 88h-24a8 8 0 0 0 -8 8v24a8 8 0 0 0 8 8h24a8 8 0 0 0 8-8v-24a8 8 0 0 0 -8-8zm-8 24h-8v-8h8z" fill="url(#q)"/><path d="m200 136h-24a8 8 0 0 0 -8 8v24a8 8 0 0 0 8 8h24a8 8 0 0 0 8-8v-24a8 8 0 0 0 -8-8zm-8 24h-8v-8h8z" fill="url(#r)"/></g></svg>