<svg height="472pt" viewBox="0 -40 472 472" width="472pt" xmlns="http://www.w3.org/2000/svg" xmlns:xlink="http://www.w3.org/1999/xlink"><linearGradient id="a"><stop offset="0" stop-color="#00efd1"/><stop offset="1" stop-color="#00acea"/></linearGradient><linearGradient id="b" gradientUnits="userSpaceOnUse" x1="236.002" x2="236.002" xlink:href="#a" y1="-21.231" y2="410.906"/><linearGradient id="c" gradientUnits="userSpaceOnUse" x1="103.31" x2="103.31" xlink:href="#a" y1="-21.231" y2="410.906"/><linearGradient id="d" gradientUnits="userSpaceOnUse" x1="156.303" x2="156.303" xlink:href="#a" y1="-21.231" y2="410.906"/><linearGradient id="e" gradientUnits="userSpaceOnUse" x1="50.317" x2="50.317" xlink:href="#a" y1="-21.231" y2="410.906"/><linearGradient id="f" gradientUnits="userSpaceOnUse" x1="236" x2="236" xlink:href="#a" y1="-21.231" y2="410.906"/><path d="m472 92.199219v-84.65625c0-4.417969-3.585938-7.542969-8-7.542969h-456c-4.417969 0-8 3.125-8 7.542969v376.914062c0 4.417969 3.582031 7.542969 8 7.542969h456c4.417969 0 8-3.125 8-7.542969v-292.105469c0-.027343 0-.050781 0-.078124 0-.027344 0-.050782 0-.074219zm-16-76.199219v68h-440v-68zm-440 360v-276h440v276zm0 0" fill="url(#b)"/><path d="m103.308594 75.144531c13.402344 0 24.308594-11.261719 24.308594-25.105469s-10.902344-25.101562-24.308594-25.101562-24.308594 11.261719-24.308594 25.101562c0 13.835938 10.90625 25.105469 24.308594 25.105469zm0-34.210937c4.582031 0 8.308594 4.082031 8.308594 9.097656 0 5.019531-3.726563 9.109375-8.308594 9.109375-4.578125 0-8.308594-4.082031-8.308594-9.101563 0-5.023437 3.730469-9.105468 8.308594-9.105468zm0 0" fill="url(#c)"/><path d="m156.300781 75.144531c13.398438 0 24.304688-11.261719 24.304688-25.105469s-10.898438-25.101562-24.304688-25.101562-24.300781 11.261719-24.300781 25.101562c0 13.835938 10.898438 25.105469 24.300781 25.105469zm0-34.210937c4.578125 0 8.304688 4.082031 8.304688 9.097656 0 5.019531-3.726563 9.109375-8.304688 9.109375-4.582031 0-8.300781-4.082031-8.300781-9.101563 0-5.023437 3.722656-9.105468 8.300781-9.105468zm0 0" fill="url(#d)"/><path d="m50.316406 75.144531c13.402344 0 24.304688-11.261719 24.304688-25.105469s-10.898438-25.101562-24.304688-25.101562-24.304687 11.261719-24.304687 25.101562c0 13.835938 10.902343 25.105469 24.304687 25.105469zm0-34.210937c4.582032 0 8.304688 4.082031 8.304688 9.097656 0 5.019531-3.722656 9.109375-8.304688 9.109375-4.578125 0-8.304687-4.085937-8.304687-9.109375 0-5.019531 3.726562-9.097656 8.304687-9.097656zm0 0" fill="url(#e)"/><path d="m380.179688 259h-90.910157l8.886719-33.34375c.550781-2.066406.257812-4.269531-.816406-6.117188l-54.429688-93.402343c-1.429687-2.460938-4.0625-3.972657-6.90625-3.976563-2.847656 0-5.480468 1.511719-6.914062 3.96875l-54.429688 93.382813c-1.082031 1.878906-1.371094 4.113281-.800781 6.207031l9.167969 33.28125h-91.207032c-2.089843-.015625-4.101562.8125-5.574218 2.300781s-2.28125 3.507813-2.246094 5.597657v77.785156c0 4.417968 3.398438 8.320312 7.820312 8.320312h288.359376c4.417968 0 7.820312-3.902344 7.820312-8.320312v-77.785156c.035156-2.089844-.773438-4.109376-2.246094-5.597657s-3.484375-2.316406-5.574218-2.300781zm-140.449219-59.207031c0 2.058593-1.671875 3.726562-3.730469 3.726562s-3.730469-1.667969-3.730469-3.726562c0-2.058594 1.671875-3.730469 3.730469-3.730469 2.058594.003906 3.726562 1.671875 3.730469 3.730469zm-49.550781 24.917969 37.820312-64.941407v22c-8.519531 3.78125-13.230469 13.007813-11.300781 22.125 1.933593 9.117188 9.980469 15.640625 19.300781 15.640625s17.367188-6.523437 19.300781-15.640625c1.929688-9.117187-2.78125-18.34375-11.300781-22.125v-22l37.839844 64.976563-9.128906 34.253906h-73.082032zm181.820312 50.289062v10h-272v-10zm-14 62v-6.855469c0-4.417969-3.582031-8-8-8s-8 3.582031-8 8v6.855469h-9v-17c0-4.417969-3.582031-8-8-8s-8 3.582031-8 8v17h-10v-6.855469c0-4.417969-3.582031-8-8-8s-8 3.582031-8 8v6.855469h-9v-17c0-4.417969-3.582031-8-8-8s-8 3.582031-8 8v17h-9v-6.855469c0-4.417969-3.582031-8-8-8s-8 3.582031-8 8v6.855469h-10v-17c0-4.417969-3.582031-8-8-8s-8 3.582031-8 8v17h-9v-6.855469c0-4.417969-3.582031-8-8-8s-8 3.582031-8 8v6.855469h-9v-17c0-4.417969-3.582031-8-8-8s-8 3.582031-8 8v17h-10v-6.855469c0-4.417969-3.582031-8-8-8s-8 3.582031-8 8v6.855469h-9v-17c0-4.417969-3.582031-8-8-8s-8 3.582031-8 8v17h-14v-36h272v36zm0 0" fill="url(#f)"/></svg>