<svg height="456pt" viewBox="0 -40 456 456" width="456pt" xmlns="http://www.w3.org/2000/svg"><path d="m456 84.730469v292.191406h-456v-292.191406zm-83.820312 252.410156v-77.78125h-101.320313l11.570313-43.359375-54.429688-93.378906-54.429688 93.378906 11.960938 43.359375h-101.710938v77.78125zm0 0" fill="#00efd1"/><path d="m456 0v84.730469h-456v-84.730469zm-291.390625 42.5c0-9.449219-7.300781-17.109375-16.308594-17.109375-9.011719 0-16.300781 7.660156-16.300781 17.109375s7.300781 17.101562 16.300781 17.101562 16.308594-7.652343 16.308594-17.101562zm-52.988281 0c0-9.449219-7.300782-17.109375-16.3125-17.109375-9.007813 0-16.308594 7.660156-16.308594 17.109375s7.300781 17.101562 16.308594 17.101562c9.011718 0 16.3125-7.652343 16.3125-17.101562zm-53 0c0-9.449219-7.300782-17.109375-16.300782-17.109375s-16.308593 7.660156-16.308593 17.109375 7.296875 17.101562 16.308593 17.101562c9.007813 0 16.300782-7.652343 16.300782-17.101562zm0 0" fill="#00acea"/><path d="m83.820312 284.980469h288.359376v52.160156h-288.359376zm0 0" fill="#fedb41"/><path d="m185.53125 259.359375h186.648438v25.621094h-288.359376v-25.621094zm0 0" fill="#00acea"/><path d="m228 122.621094 54.429688 93.378906-11.570313 43.359375h-85.328125l-11.960938-43.359375zm0 0" fill="#fedb41"/><path d="m148.300781 25.390625c9.007813 0 16.308594 7.660156 16.308594 17.109375s-7.300781 17.101562-16.308594 17.101562c-9.011719 0-16.300781-7.652343-16.300781-17.101562s7.300781-17.109375 16.300781-17.109375zm0 0" fill="#00efd1"/><path d="m95.308594 25.390625c9.011718 0 16.3125 7.660156 16.3125 17.109375s-7.300782 17.101562-16.3125 17.101562c-9.007813 0-16.308594-7.652343-16.308594-17.101562s7.300781-17.109375 16.308594-17.109375zm0 0" fill="#00efd1"/><path d="m42.320312 25.390625c9 0 16.300782 7.660156 16.300782 17.109375s-7.300782 17.101562-16.300782 17.101562-16.308593-7.652343-16.308593-17.101562 7.296875-17.109375 16.308593-17.109375zm0 0" fill="#00efd1"/><g fill="#00acea"><path d="m215 304.46875c-4.417969 0-8 3.582031-8 8v24.992188h16v-24.992188c0-4.417969-3.582031-8-8-8zm0 0"/><path d="m190 314.609375c-4.417969 0-8 3.582031-8 8v14.851563h16v-14.851563c0-4.417969-3.582031-8-8-8zm0 0"/><path d="m165 304.46875c-4.417969 0-8 3.582031-8 8v24.992188h16v-24.992188c0-4.417969-3.582031-8-8-8zm0 0"/><path d="m139 314.609375c-4.417969 0-8 3.582031-8 8v14.851563h16v-14.851563c0-4.417969-3.582031-8-8-8zm0 0"/><path d="m114 304.46875c-4.417969 0-8 3.582031-8 8v24.992188h16v-24.992188c0-4.417969-3.582031-8-8-8zm0 0"/><path d="m342 314.609375c-4.417969 0-8 3.582031-8 8v14.851563h16v-14.851563c0-4.417969-3.582031-8-8-8zm0 0"/><path d="m317 304.46875c-4.417969 0-8 3.582031-8 8v24.992188h16v-24.992188c0-4.417969-3.582031-8-8-8zm0 0"/><path d="m291 314.609375c-4.417969 0-8 3.582031-8 8v14.851563h16v-14.851563c0-4.417969-3.582031-8-8-8zm0 0"/><path d="m266 304.46875c-4.417969 0-8 3.582031-8 8v24.992188h16v-24.992188c0-4.417969-3.582031-8-8-8zm0 0"/><path d="m241 314.609375c-4.417969 0-8 3.582031-8 8v14.851563h16v-14.851563c0-4.417969-3.582031-8-8-8zm0 0"/></g><path d="m228 188.523438c-4.417969 0-8-3.582032-8-8v-57.226563c0-4.417969 3.582031-8 8-8s8 3.582031 8 8v57.226563c0 4.417968-3.582031 8-8 8zm0 0" fill="#f4b844"/><path d="m242.398438 192.25c0 7.953125-6.445313 14.398438-14.398438 14.398438s-14.398438-6.445313-14.398438-14.398438 6.445313-14.398438 14.398438-14.398438 14.398438 6.445313 14.398438 14.398438zm0 0" fill="#00acea"/></svg>